# xmcd
#
# Track frame offsets: 
#        150
#        26179
#        51412
#        78747
#        110776
#        142763
#        169535
#        197887
#        228452
#        250905
#        289055
#
# Disc length: 4385 seconds
#
# Revision: 1
# Processed by: cddbd v1.5.2PL0 Copyright (c) Steve Scherf et al.
# Submitted via: ExactAudioCopy v1.1
#
DISCID=a0111f0b
DTITLE=さだまさし - 天晴 -オールタイム・ベスト- Disc3 いのち
DYEAR=2013
DGENRE=JPop
TTITLE0=精霊流し
TTITLE1=黄昏迄
TTITLE2=デイジー
TTITLE3=フレディもしくは三教街 -ロシア租界にて-
TTITLE4=防人の詩
TTITLE5=たいせつなひと (シネマ・ヴァージョン)
TTITLE6=償い
TTITLE7=奇跡 〜大きな愛のように〜
TTITLE8=いのちの理由
TTITLE9=遙かなるクリスマス
TTITLE10=風に立つライオン
EXTD=
EXTT0=
EXTT1=
EXTT2=
EXTT3=
EXTT4=
EXTT5=
EXTT6=
EXTT7=
EXTT8=
EXTT9=
EXTT10=
PLAYORDER=
